# Mesh "EmeraldCut" exported with Unity Assets Bundle Extractor; 208 vertices, 324 indices, 320 bits per vertex
g EmeraldCut
# SubMesh 0
# Vertices
v -0.183585 0.119300 0.288643
vn -0.288929 0.927369 0.237714
v -0.151684 0.129239 0.288643
vn -0.288929 0.927369 0.237714
v -0.151684 0.119300 0.327417
vn -0.288929 0.927369 0.237714
v -0.183585 0.119300 0.288643
vn -0.476083 0.784656 0.397063
v -0.151684 0.119300 0.327417
vn -0.482179 0.781105 0.396709
v -0.151684 0.046322 0.471108
vn -0.476083 0.784656 0.397063
v -0.305975 0.046322 0.288643
vn -0.469964 0.788168 0.397398
v -0.151684 0.129239 -0.288643
vn -0.288929 0.927369 -0.237714
v -0.183585 0.119300 -0.288643
vn -0.288929 0.927369 -0.237714
v -0.151684 0.119300 -0.327417
vn -0.288929 0.927369 -0.237714
v -0.151684 0.046322 -0.474180
vn -0.472014 0.789385 -0.392522
v -0.151684 0.119300 -0.327417
vn -0.471986 0.790448 -0.390411
v -0.305975 0.046322 -0.288643
vn -0.471986 0.790448 -0.390411
v -0.183585 0.119300 -0.288643
vn -0.471955 0.791507 -0.388298
v 0.151684 0.129239 -0.288643
vn 0.288929 0.927369 -0.237714
v 0.151684 0.119300 -0.327417
vn 0.288929 0.927369 -0.237714
v 0.183585 0.119300 -0.288643
vn 0.288929 0.927369 -0.237714
v 0.183585 0.119300 -0.288643
vn 0.473568 0.788858 -0.391709
v 0.151684 0.119300 -0.327417
vn 0.475945 0.787490 -0.391580
v 0.151684 0.046322 -0.474180
vn 0.473568 0.788858 -0.391709
v 0.305975 0.046322 -0.288643
vn 0.471188 0.790220 -0.391836
v 0.183585 0.119300 0.288643
vn 0.288929 0.927369 0.237714
v 0.151684 0.119300 0.327417
vn 0.288929 0.927369 0.237714
v 0.151684 0.129239 0.288643
vn 0.288929 0.927369 0.237714
v 0.151684 0.119300 0.327417
vn 0.482179 0.781105 0.396709
v 0.183585 0.119300 0.288643
vn 0.476083 0.784656 0.397063
v 0.151684 0.046322 0.471108
vn 0.476083 0.784656 0.397063
v 0.305975 0.046322 0.288643
vn 0.469964 0.788168 0.397398
v -0.153412 -0.119300 0.241203
vn -0.259166 -0.942001 0.213229
v -0.126754 -0.119300 0.273604
vn -0.259166 -0.942001 0.213229
v -0.071072 -0.165938 0.135245
vn -0.259166 -0.942001 0.213229
v -0.153412 -0.119300 0.241203
vn -0.485391 -0.774922 0.404834
v -0.131257 -0.046322 0.407459
vn -0.485391 -0.774922 0.404834
v -0.126754 -0.119300 0.273604
vn -0.491220 -0.771599 0.404152
v -0.264771 -0.046322 0.249566
vn -0.479540 -0.778211 0.405498
v -0.071072 -0.165938 -0.135245
vn -0.259166 -0.942001 -0.213229
v -0.126754 -0.119300 -0.273604
vn -0.259166 -0.942001 -0.213229
v -0.153412 -0.119300 -0.241203
vn -0.259166 -0.942001 -0.213229
v -0.131257 -0.046322 -0.410531
vn -0.480987 -0.780167 -0.399988
v -0.264771 -0.046322 -0.249980
vn -0.481137 -0.781099 -0.397984
v -0.126754 -0.119300 -0.273604
vn -0.481137 -0.781099 -0.397984
v -0.153412 -0.119300 -0.241203
vn -0.481284 -0.782028 -0.395977
v 0.071072 -0.165938 -0.135245
vn 0.259166 -0.942001 -0.213229
v 0.153412 -0.119300 -0.241203
vn 0.259166 -0.942001 -0.213229
v 0.126754 -0.119300 -0.273604
vn 0.259166 -0.942001 -0.213229
v 0.153412 -0.119300 -0.241203
vn 0.482555 -0.779630 -0.399147
v 0.131257 -0.046322 -0.410531
vn 0.482555 -0.779630 -0.399147
v 0.126754 -0.119300 -0.273604
vn 0.484827 -0.778349 -0.398893
v 0.264771 -0.046322 -0.249980
vn 0.480279 -0.780905 -0.399399
v 0.153412 -0.119300 0.241203
vn 0.259166 -0.942001 0.213229
v 0.071072 -0.165938 0.135245
vn 0.259166 -0.942001 0.213229
v 0.126754 -0.119300 0.273604
vn 0.259166 -0.942001 0.213229
v 0.126754 -0.119300 0.273604
vn 0.491220 -0.771599 0.404152
v 0.131257 -0.046322 0.407459
vn 0.485391 -0.774922 0.404834
v 0.153412 -0.119300 0.241203
vn 0.485391 -0.774922 0.404834
v 0.264771 -0.046322 0.249566
vn 0.479540 -0.778211 0.405498
v 0.007188 0.025308 -0.474180
vn -0.000000 -0.664235 -0.747524
v -0.151684 0.025308 -0.474180
vn -0.000000 -0.664235 -0.747524
v -0.131257 -0.046322 -0.410531
vn -0.000000 -0.664235 -0.747524
v 0.131257 -0.046322 -0.410531
vn -0.000000 -0.664235 -0.747524
v 0.151684 0.025308 -0.474180
vn -0.000000 -0.664235 -0.747524
v 0.007188 0.025308 -0.474180
vn -0.000000 0.000000 -1.000000
v 0.151684 0.025308 -0.474180
vn -0.000000 0.000000 -1.000000
v 0.151684 0.046322 -0.474180
vn -0.000000 0.000000 -1.000000
v -0.151684 0.046322 -0.474180
vn -0.000000 0.000000 -1.000000
v -0.151684 0.025308 -0.474180
vn -0.000000 0.000000 -1.000000
v 0.151684 0.025308 -0.474180
vn 0.768880 0.000000 -0.639394
v 0.228854 0.025308 -0.381382
vn 0.768880 0.000000 -0.639394
v 0.151684 0.046322 -0.474180
vn 0.768880 0.000000 -0.639394
v 0.305975 0.025308 -0.288643
vn 0.768879 0.000000 -0.639394
v 0.305975 0.046322 -0.288643
vn 0.768880 0.000000 -0.639394
v 0.305975 0.025308 -0.288643
vn 0.604088 -0.618642 -0.502354
v 0.228854 0.025308 -0.381382
vn 0.604088 -0.618642 -0.502354
v 0.264771 -0.046322 -0.249980
vn 0.604086 -0.618644 -0.502354
v 0.151684 0.025308 -0.474180
vn 0.604085 -0.618645 -0.502354
v 0.131257 -0.046322 -0.410531
vn 0.604081 -0.618649 -0.502353
v 0.305975 0.025308 -0.288643
vn 1.000000 0.000000 0.000000
v 0.305975 0.025308 0.027331
vn 1.000000 0.000000 0.000000
v 0.305975 0.046322 -0.288643
vn 1.000000 0.000000 0.000000
v 0.305975 0.025308 0.288643
vn 1.000000 0.000000 0.000000
v 0.305975 0.046322 0.288643
vn 1.000000 0.000000 0.000000
v 0.305975 0.025308 0.288643
vn 0.866819 -0.498623 0.000000
v 0.305975 0.025308 0.027331
vn 0.866819 -0.498623 0.000000
v 0.264771 -0.046322 0.249566
vn 0.866819 -0.498623 0.000000
v 0.305975 0.025308 -0.288643
vn 0.866819 -0.498623 0.000000
v 0.264771 -0.046322 -0.249980
vn 0.866819 -0.498623 0.000000
v 0.305975 0.025308 0.288643
vn 0.763595 0.000000 0.645696
v 0.216563 0.025308 0.394381
vn 0.763598 0.000000 0.645692
v 0.305975 0.046322 0.288643
vn 0.763598 0.000000 0.645692
v 0.151684 0.025308 0.471108
vn 0.763600 0.000000 0.645690
v 0.151684 0.046322 0.471108
vn 0.763598 0.000000 0.645692
v 0.151684 0.025308 0.471108
vn 0.598746 -0.620625 0.506289
v 0.216563 0.025308 0.394381
vn 0.598745 -0.620623 0.506293
v 0.131257 -0.046322 0.407459
vn 0.598744 -0.620622 0.506294
v 0.305975 0.025308 0.288643
vn 0.598743 -0.620621 0.506297
v 0.264771 -0.046322 0.249566
vn 0.598743 -0.620622 0.506296
v 0.151684 0.025308 0.471108
vn -0.000000 0.000000 1.000000
v -0.021864 0.025308 0.471108
vn -0.000000 0.000000 1.000000
v 0.151684 0.046322 0.471108
vn -0.000000 0.000000 1.000000
v -0.151684 0.025308 0.471108
vn -0.000000 0.000000 1.000000
v -0.151684 0.046322 0.471108
vn -0.000000 0.000000 1.000000
v -0.151684 0.025308 0.471108
vn -0.000000 -0.664235 0.747524
v -0.021864 0.025308 0.471108
vn -0.000000 -0.664235 0.747524
v -0.131257 -0.046322 0.407459
vn -0.000000 -0.664235 0.747524
v 0.151684 0.025308 0.471108
vn -0.000000 -0.664235 0.747524
v 0.131257 -0.046322 0.407459
vn -0.000000 -0.664235 0.747524
v -0.151684 0.025308 0.471108
vn -0.763598 0.000000 0.645692
v -0.236227 0.025308 0.371127
vn -0.763598 0.000000 0.645692
v -0.151684 0.046322 0.471108
vn -0.763598 0.000000 0.645692
v -0.305975 0.025308 0.288643
vn -0.763597 0.000000 0.645693
v -0.305975 0.046322 0.288643
vn -0.763598 0.000000 0.645692
v -0.305975 0.025308 0.288643
vn -0.598744 -0.620622 0.506295
v -0.236227 0.025308 0.371127
vn -0.598745 -0.620621 0.506294
v -0.264771 -0.046322 0.249566
vn -0.598743 -0.620623 0.506294
v -0.151684 0.025308 0.471108
vn -0.598743 -0.620624 0.506294
v -0.131257 -0.046322 0.407459
vn -0.598740 -0.620627 0.506293
v -0.305975 0.025308 0.288643
vn -1.000000 0.000000 0.000000
v -0.305975 0.025308 -0.002790
vn -1.000000 0.000000 0.000000
v -0.305975 0.046322 0.288643
vn -1.000000 0.000000 0.000000
v -0.305975 0.025308 -0.288643
vn -1.000000 0.000000 0.000000
v -0.305975 0.046322 -0.288643
vn -1.000000 0.000000 0.000000
v -0.305975 0.025308 -0.288643
vn -0.866819 -0.498623 0.000000
v -0.305975 0.025308 -0.002790
vn -0.866819 -0.498623 0.000000
v -0.264771 -0.046322 -0.249980
vn -0.866819 -0.498623 0.000000
v -0.305975 0.025308 0.288643
vn -0.866819 -0.498623 0.000000
v -0.264771 -0.046322 0.249566
vn -0.866819 -0.498623 0.000000
v -0.305975 0.025308 -0.288643
vn -0.768881 0.000000 -0.639391
v -0.233311 0.025308 -0.376023
vn -0.768880 0.000000 -0.639394
v -0.305975 0.046322 -0.288643
vn -0.768880 0.000000 -0.639394
v -0.151684 0.025308 -0.474180
vn -0.768879 0.000000 -0.639395
v -0.151684 0.046322 -0.474180
vn -0.768880 0.000000 -0.639394
v -0.151684 0.025308 -0.474180
vn -0.604082 -0.618649 -0.502353
v -0.233311 0.025308 -0.376023
vn -0.604083 -0.618651 -0.502350
v -0.131257 -0.046322 -0.410531
vn -0.604084 -0.618648 -0.502352
v -0.305975 0.025308 -0.288643
vn -0.604084 -0.618647 -0.502352
v -0.264771 -0.046322 -0.249980
vn -0.604086 -0.618642 -0.502357
v -0.151684 0.046322 0.471108
vn -0.000000 0.891599 0.452826
v 0.151684 0.119300 0.327417
vn -0.000000 0.891599 0.452826
v 0.151684 0.046322 0.471108
vn -0.000000 0.891599 0.452826
v -0.151684 0.119300 0.327417
vn -0.000000 0.891599 0.452826
v -0.151684 0.119300 0.327417
vn -0.000000 0.968682 0.248304
v 0.151684 0.129239 0.288643
vn -0.000000 0.968682 0.248304
v 0.151684 0.119300 0.327417
vn -0.000000 0.968682 0.248304
v -0.151684 0.129239 0.288643
vn -0.000000 0.968682 0.248304
v -0.305975 0.046322 0.288643
vn -0.512141 0.858901 0.000000
v -0.183585 0.119300 -0.288643
vn -0.512141 0.858901 0.000000
v -0.183585 0.119300 0.288643
vn -0.512141 0.858901 0.000000
v -0.305975 0.046322 -0.288643
vn -0.512141 0.858901 0.000000
v -0.183585 0.119300 0.288643
vn -0.297455 0.954736 0.000000
v -0.151684 0.129239 -0.288643
vn -0.297455 0.954736 0.000000
v -0.151684 0.129239 0.288643
vn -0.297455 0.954736 0.000000
v -0.183585 0.119300 -0.288643
vn -0.297455 0.954736 0.000000
v -0.151684 0.129239 0.288643
vn -0.000000 1.000000 0.000000
v 0.151684 0.129239 -0.288643
vn -0.000000 1.000000 0.000000
v 0.151684 0.129239 0.288643
vn -0.000000 1.000000 0.000000
v -0.151684 0.129239 -0.288643
vn -0.000000 1.000000 0.000000
v 0.151684 0.129239 0.288643
vn 0.297455 0.954736 0.000000
v 0.183585 0.119300 -0.288643
vn 0.297455 0.954736 0.000000
v 0.183585 0.119300 0.288643
vn 0.297455 0.954736 0.000000
v 0.151684 0.129239 -0.288643
vn 0.297455 0.954736 0.000000
v 0.183585 0.119300 0.288643
vn 0.512141 0.858901 0.000000
v 0.305975 0.046322 -0.288643
vn 0.512141 0.858901 0.000000
v 0.305975 0.046322 0.288643
vn 0.512141 0.858901 0.000000
v 0.183585 0.119300 -0.288643
vn 0.512141 0.858901 0.000000
v -0.151684 0.129239 -0.288643
vn -0.000000 0.968682 -0.248304
v 0.151684 0.119300 -0.327417
vn -0.000000 0.968682 -0.248304
v 0.151684 0.129239 -0.288643
vn -0.000000 0.968682 -0.248304
v -0.151684 0.119300 -0.327417
vn -0.000000 0.968682 -0.248304
v -0.151684 0.119300 -0.327417
vn -0.000000 0.895410 -0.445243
v 0.151684 0.046322 -0.474180
vn -0.000000 0.895410 -0.445243
v 0.151684 0.119300 -0.327417
vn -0.000000 0.895410 -0.445243
v -0.151684 0.046322 -0.474180
vn -0.000000 0.895410 -0.445243
v -0.131257 -0.046322 0.407459
vn -0.000000 -0.877989 0.478681
v 0.126754 -0.119300 0.273604
vn -0.000000 -0.877989 0.478681
v -0.126754 -0.119300 0.273604
vn -0.000000 -0.877989 0.478681
v 0.131257 -0.046322 0.407459
vn -0.000000 -0.877989 0.478681
v -0.126754 -0.119300 0.273604
vn -0.000000 -0.947613 0.319421
v 0.071072 -0.165938 0.135245
vn -0.000000 -0.947613 0.319421
v -0.071072 -0.165938 0.135245
vn -0.000000 -0.947613 0.319421
v 0.126754 -0.119300 0.273604
vn -0.000000 -0.947613 0.319421
v -0.264771 -0.046322 0.249566
vn -0.548124 -0.836397 0.000000
v -0.153412 -0.119300 -0.241203
vn -0.548124 -0.836397 0.000000
v -0.264771 -0.046322 -0.249980
vn -0.548124 -0.836397 0.000000
v -0.153412 -0.119300 0.241203
vn -0.548124 -0.836397 0.000000
v -0.153412 -0.119300 0.241203
vn -0.492842 -0.870119 0.000000
v -0.071072 -0.165938 -0.135245
vn -0.492842 -0.870119 0.000000
v -0.153412 -0.119300 -0.241203
vn -0.492842 -0.870119 0.000000
v -0.071072 -0.165938 0.135245
vn -0.492842 -0.870119 0.000000
v -0.071072 -0.165938 0.135245
vn -0.000000 -1.000000 0.000000
v 0.071072 -0.165938 -0.135245
vn -0.000000 -1.000000 0.000000
v -0.071072 -0.165938 -0.135245
vn -0.000000 -1.000000 0.000000
v 0.071072 -0.165938 0.135245
vn -0.000000 -1.000000 0.000000
v 0.071072 -0.165938 0.135245
vn 0.492842 -0.870119 0.000000
v 0.153412 -0.119300 -0.241203
vn 0.492842 -0.870119 0.000000
v 0.071072 -0.165938 -0.135245
vn 0.492842 -0.870119 0.000000
v 0.153412 -0.119300 0.241203
vn 0.492842 -0.870119 0.000000
v 0.153412 -0.119300 0.241203
vn 0.548124 -0.836397 0.000000
v 0.264771 -0.046322 -0.249980
vn 0.548124 -0.836397 0.000000
v 0.153412 -0.119300 -0.241203
vn 0.548124 -0.836397 0.000000
v 0.264771 -0.046322 0.249566
vn 0.548124 -0.836397 0.000000
v -0.071072 -0.165938 -0.135245
vn -0.000000 -0.947613 -0.319421
v 0.126754 -0.119300 -0.273604
vn -0.000000 -0.947613 -0.319421
v -0.126754 -0.119300 -0.273604
vn -0.000000 -0.947613 -0.319421
v 0.071072 -0.165938 -0.135245
vn -0.000000 -0.947613 -0.319421
v -0.126754 -0.119300 -0.273604
vn -0.000000 -0.882486 -0.470339
v 0.131257 -0.046322 -0.410531
vn -0.000000 -0.882486 -0.470339
v -0.131257 -0.046322 -0.410531
vn -0.000000 -0.882486 -0.470339
v 0.126754 -0.119300 -0.273604
vn -0.000000 -0.882486 -0.470339
# Faces (1 to 208)
g EmeraldCut_0
f -206//-206 -207//-207 -208//-208
f -203//-203 -204//-204 -205//-205
f -202//-202 -203//-203 -205//-205
f -199//-199 -200//-200 -201//-201
f -196//-196 -197//-197 -198//-198
f -195//-195 -197//-197 -196//-196
f -192//-192 -193//-193 -194//-194
f -189//-189 -190//-190 -191//-191
f -189//-189 -191//-191 -188//-188
f -185//-185 -186//-186 -187//-187
f -182//-182 -183//-183 -184//-184
f -181//-181 -183//-183 -182//-182
f -178//-178 -179//-179 -180//-180
f -175//-175 -176//-176 -177//-177
f -176//-176 -174//-174 -177//-177
f -171//-171 -172//-172 -173//-173
f -168//-168 -169//-169 -170//-170
f -168//-168 -167//-167 -169//-169
f -164//-164 -165//-165 -166//-166
f -161//-161 -162//-162 -163//-163
f -163//-163 -162//-162 -160//-160
f -157//-157 -158//-158 -159//-159
f -154//-154 -155//-155 -156//-156
f -154//-154 -153//-153 -155//-155
f -150//-150 -151//-151 -152//-152
f -149//-149 -150//-150 -152//-152
f -148//-148 -149//-149 -152//-152
f -145//-145 -146//-146 -147//-147
f -144//-144 -145//-145 -147//-147
f -143//-143 -144//-144 -147//-147
f -140//-140 -141//-141 -142//-142
f -141//-141 -140//-140 -139//-139
f -140//-140 -138//-138 -139//-139
f -135//-135 -136//-136 -137//-137
f -136//-136 -135//-135 -134//-134
f -135//-135 -133//-133 -134//-134
f -130//-130 -131//-131 -132//-132
f -131//-131 -130//-130 -129//-129
f -130//-130 -128//-128 -129//-129
f -125//-125 -126//-126 -127//-127
f -126//-126 -125//-125 -124//-124
f -125//-125 -123//-123 -124//-124
f -120//-120 -121//-121 -122//-122
f -121//-121 -120//-120 -119//-119
f -120//-120 -118//-118 -119//-119
f -115//-115 -116//-116 -117//-117
f -116//-116 -115//-115 -114//-114
f -115//-115 -113//-113 -114//-114
f -110//-110 -111//-111 -112//-112
f -111//-111 -110//-110 -109//-109
f -110//-110 -108//-108 -109//-109
f -105//-105 -106//-106 -107//-107
f -106//-106 -105//-105 -104//-104
f -105//-105 -103//-103 -104//-104
f -100//-100 -101//-101 -102//-102
f -101//-101 -100//-100 -99//-99
f -100//-100 -98//-98 -99//-99
f -95//-95 -96//-96 -97//-97
f -96//-96 -95//-95 -94//-94
f -95//-95 -93//-93 -94//-94
f -90//-90 -91//-91 -92//-92
f -91//-91 -90//-90 -89//-89
f -90//-90 -88//-88 -89//-89
f -85//-85 -86//-86 -87//-87
f -86//-86 -85//-85 -84//-84
f -85//-85 -83//-83 -84//-84
f -80//-80 -81//-81 -82//-82
f -81//-81 -80//-80 -79//-79
f -80//-80 -78//-78 -79//-79
f -75//-75 -76//-76 -77//-77
f -76//-76 -75//-75 -74//-74
f -75//-75 -73//-73 -74//-74
f -70//-70 -71//-71 -72//-72
f -71//-71 -69//-69 -72//-72
f -66//-66 -67//-67 -68//-68
f -67//-67 -65//-65 -68//-68
f -62//-62 -63//-63 -64//-64
f -63//-63 -61//-61 -64//-64
f -58//-58 -59//-59 -60//-60
f -59//-59 -57//-57 -60//-60
f -54//-54 -55//-55 -56//-56
f -55//-55 -53//-53 -56//-56
f -50//-50 -51//-51 -52//-52
f -51//-51 -49//-49 -52//-52
f -46//-46 -47//-47 -48//-48
f -47//-47 -45//-45 -48//-48
f -42//-42 -43//-43 -44//-44
f -43//-43 -41//-41 -44//-44
f -38//-38 -39//-39 -40//-40
f -39//-39 -37//-37 -40//-40
f -34//-34 -35//-35 -36//-36
f -35//-35 -33//-33 -36//-36
f -30//-30 -31//-31 -32//-32
f -31//-31 -29//-29 -32//-32
f -26//-26 -27//-27 -28//-28
f -27//-27 -25//-25 -28//-28
f -22//-22 -23//-23 -24//-24
f -23//-23 -21//-21 -24//-24
f -18//-18 -19//-19 -20//-20
f -19//-19 -17//-17 -20//-20
f -14//-14 -15//-15 -16//-16
f -15//-15 -13//-13 -16//-16
f -10//-10 -11//-11 -12//-12
f -11//-11 -9//-9 -12//-12
f -6//-6 -7//-7 -8//-8
f -7//-7 -5//-5 -8//-8
f -2//-2 -3//-3 -4//-4
f -3//-3 -1//-1 -4//-4

