# Mesh "MarquiseCut" exported with Unity Assets Bundle Extractor; 168 vertices, 222 indices, 320 bits per vertex
g MarquiseCut
# SubMesh 0
# Vertices
v -0.044567 -0.103811 -0.016801
vn -0.651346 -0.758781 0.000000
v -0.044567 -0.103811 0.016801
vn -0.651346 -0.758781 0.000000
v -0.000000 -0.142029 0.000000
vn -0.650965 -0.759108 0.000000
v -0.247278 0.070375 0.000000
vn -0.651726 -0.758454 0.000000
v -0.044567 -0.103811 -0.016801
vn -0.653223 -0.750598 -0.099509
v -0.224042 0.071017 -0.157375
vn -0.653223 -0.750598 -0.099509
v -0.247278 0.070375 0.000000
vn -0.653223 -0.750598 -0.099509
v -0.044567 -0.103811 -0.016801
vn -0.581318 -0.780636 -0.229514
v -0.177474 0.070375 -0.273610
vn -0.581018 -0.781000 -0.229034
v -0.224042 0.071017 -0.157375
vn -0.581472 -0.780776 -0.228647
v -0.000000 -0.115755 -0.088909
vn -0.581241 -0.780566 -0.229948
v -0.000000 -0.142029 0.000000
vn -0.581917 -0.779907 -0.230475
v -0.176897 0.118035 -0.066677
vn -0.394054 0.911589 -0.117164
v -0.099911 0.141998 -0.139159
vn -0.394054 0.911589 -0.117164
v -0.141287 0.141998 0.000000
vn -0.394054 0.911589 -0.117164
v -0.000000 -0.115755 -0.088909
vn -0.491104 -0.803096 -0.337422
v -0.094683 0.070999 -0.395594
vn -0.491104 -0.803096 -0.337422
v -0.177474 0.070375 -0.273610
vn -0.491104 -0.803096 -0.337422
v -0.000000 -0.115755 -0.088909
vn -0.405549 -0.830972 -0.380810
v -0.000000 0.070356 -0.495025
vn -0.405549 -0.830972 -0.380810
v -0.094683 0.070999 -0.395594
vn -0.405549 -0.830972 -0.380810
v -0.058834 0.118035 -0.340778
vn -0.191053 0.969402 -0.154140
v -0.000000 0.141998 -0.262996
vn -0.191053 0.969402 -0.154140
v -0.099911 0.141998 -0.139159
vn -0.191053 0.969402 -0.154140
v -0.000000 -0.115755 -0.088909
vn 0.405656 -0.830928 -0.380790
v 0.094653 0.070999 -0.395594
vn 0.405656 -0.830928 -0.380790
v -0.000000 0.070356 -0.495025
vn 0.405656 -0.830928 -0.380790
v -0.000000 -0.115755 -0.088909
vn 0.491036 -0.803106 -0.337497
v 0.177474 0.070375 -0.273610
vn 0.491036 -0.803106 -0.337497
v 0.094653 0.070999 -0.395594
vn 0.491036 -0.803106 -0.337497
v 0.058834 0.118035 -0.340778
vn 0.191053 0.969402 -0.154140
v 0.099911 0.141998 -0.139159
vn 0.191053 0.969402 -0.154140
v -0.000000 0.141998 -0.262996
vn 0.191053 0.969402 -0.154140
v 0.044567 -0.103811 -0.016801
vn 0.581318 -0.780636 -0.229514
v -0.000000 -0.115755 -0.088909
vn 0.581241 -0.780566 -0.229948
v -0.000000 -0.142029 0.000000
vn 0.581917 -0.779907 -0.230475
v 0.177474 0.070375 -0.273610
vn 0.581018 -0.781000 -0.229034
v 0.224042 0.071017 -0.157375
vn 0.581472 -0.780776 -0.228647
v 0.044567 -0.103811 -0.016801
vn 0.653223 -0.750598 -0.099509
v 0.247278 0.070375 0.000000
vn 0.653223 -0.750598 -0.099509
v 0.224042 0.071017 -0.157375
vn 0.653223 -0.750598 -0.099509
v 0.176897 0.118034 -0.066677
vn 0.394068 0.911582 -0.117168
v 0.141287 0.141998 0.000000
vn 0.394068 0.911582 -0.117168
v 0.099911 0.141998 -0.139159
vn 0.394068 0.911582 -0.117168
v 0.044567 -0.103811 0.016801
vn 0.651346 -0.758781 0.000000
v 0.044567 -0.103811 -0.016801
vn 0.651346 -0.758781 0.000000
v -0.000000 -0.142029 0.000000
vn 0.650965 -0.759108 0.000000
v 0.247278 0.070375 0.000000
vn 0.651726 -0.758454 0.000000
v 0.177474 0.070375 -0.273610
vn 0.468611 0.861153 -0.197026
v 0.224042 0.071017 -0.157375
vn 0.477303 0.856611 -0.195956
v 0.176897 0.118034 -0.066677
vn 0.464047 0.863703 -0.196665
v 0.058834 0.118035 -0.340778
vn 0.457380 0.867176 -0.197003
v 0.099911 0.141998 -0.139159
vn 0.454881 0.868732 -0.195927
v 0.224042 0.071017 -0.157375
vn 0.614033 0.784420 -0.087460
v 0.247278 0.070375 0.000000
vn 0.614033 0.784420 -0.087460
v 0.176897 0.118034 -0.066677
vn 0.614033 0.784420 -0.087460
v 0.094653 0.070999 -0.395594
vn 0.510781 0.788427 -0.342761
v 0.177474 0.070375 -0.273610
vn 0.510781 0.788427 -0.342761
v 0.058834 0.118035 -0.340778
vn 0.510781 0.788427 -0.342761
v 0.094653 0.070999 -0.395594
vn 0.427051 0.805048 -0.411735
v 0.058834 0.118035 -0.340778
vn 0.427051 0.805048 -0.411735
v -0.000000 0.070356 -0.495025
vn 0.427051 0.805048 -0.411735
v -0.000000 0.070356 -0.495025
vn -0.426881 0.805154 -0.411704
v -0.058834 0.118035 -0.340778
vn -0.426881 0.805154 -0.411704
v -0.094683 0.070999 -0.395594
vn -0.426881 0.805154 -0.411704
v -0.094683 0.070999 -0.395594
vn -0.510731 0.788529 -0.342602
v -0.058834 0.118035 -0.340778
vn -0.510731 0.788529 -0.342602
v -0.177474 0.070375 -0.273610
vn -0.510731 0.788529 -0.342602
v -0.224042 0.071017 -0.157375
vn -0.477311 0.856606 -0.195959
v -0.177474 0.070375 -0.273610
vn -0.468616 0.861149 -0.197030
v -0.176897 0.118035 -0.066677
vn -0.464047 0.863703 -0.196667
v -0.058834 0.118035 -0.340778
vn -0.457375 0.867178 -0.197004
v -0.099911 0.141998 -0.139159
vn -0.454870 0.868738 -0.195925
v -0.224042 0.071017 -0.157375
vn -0.614041 0.784413 -0.087462
v -0.176897 0.118035 -0.066677
vn -0.614041 0.784413 -0.087462
v -0.247278 0.070375 0.000000
vn -0.614041 0.784413 -0.087462
v -0.000000 0.141998 -0.262996
vn -0.000000 0.955675 -0.294423
v -0.058834 0.118035 -0.340778
vn -0.000000 0.955537 -0.294872
v 0.058834 0.118035 -0.340778
vn -0.000000 0.955537 -0.294872
v -0.000000 0.070356 -0.495025
vn -0.000000 0.955398 -0.295321
v 0.099911 0.141998 -0.139159
vn -0.000000 1.000000 0.000000
v -0.099911 0.141998 -0.139159
vn -0.000000 1.000000 0.000000
v -0.000000 0.141998 -0.262996
vn -0.000000 1.000000 0.000000
v 0.099911 0.141998 0.139159
vn -0.000000 1.000000 0.000000
v -0.099911 0.141998 0.139159
vn -0.000000 1.000000 0.000000
v -0.000000 0.141998 0.262996
vn -0.000000 1.000000 0.000000
v -0.141287 0.141998 0.000000
vn -0.000000 1.000000 0.000000
v 0.141287 0.141998 0.000000
vn -0.000000 1.000000 0.000000
v -0.000000 -0.115755 0.088909
vn -0.491104 -0.803096 0.337422
v -0.177474 0.070375 0.273610
vn -0.491104 -0.803096 0.337422
v -0.094683 0.070999 0.395594
vn -0.491104 -0.803096 0.337422
v -0.000000 -0.115755 0.088909
vn -0.405549 -0.830972 0.380810
v -0.094683 0.070999 0.395594
vn -0.405549 -0.830972 0.380810
v -0.000000 0.070356 0.495025
vn -0.405549 -0.830972 0.380810
v -0.058834 0.118035 0.340778
vn -0.191053 0.969402 0.154140
v -0.099911 0.141998 0.139159
vn -0.191053 0.969402 0.154140
v -0.000000 0.141998 0.262996
vn -0.191053 0.969402 0.154140
v -0.000000 -0.115755 0.088909
vn 0.405656 -0.830928 0.380790
v -0.000000 0.070356 0.495025
vn 0.405656 -0.830928 0.380790
v 0.094653 0.070999 0.395594
vn 0.405656 -0.830928 0.380790
v -0.000000 -0.115755 0.088909
vn 0.491036 -0.803106 0.337497
v 0.094653 0.070999 0.395594
vn 0.491036 -0.803106 0.337497
v 0.177474 0.070375 0.273610
vn 0.491036 -0.803106 0.337497
v 0.058834 0.118035 0.340778
vn 0.191053 0.969402 0.154140
v -0.000000 0.141998 0.262996
vn 0.191053 0.969402 0.154140
v 0.099911 0.141998 0.139159
vn 0.191053 0.969402 0.154140
v 0.177474 0.070375 0.273610
vn 0.468611 0.861153 0.197026
v 0.176897 0.118034 0.066677
vn 0.464047 0.863703 0.196665
v 0.224042 0.071017 0.157375
vn 0.477303 0.856611 0.195956
v 0.058834 0.118035 0.340778
vn 0.457380 0.867176 0.197003
v 0.099911 0.141998 0.139159
vn 0.454881 0.868732 0.195927
v 0.094653 0.070999 0.395594
vn 0.510781 0.788427 0.342761
v 0.058834 0.118035 0.340778
vn 0.510781 0.788427 0.342761
v 0.177474 0.070375 0.273610
vn 0.510781 0.788427 0.342761
v 0.094653 0.070999 0.395594
vn 0.427051 0.805048 0.411735
v -0.000000 0.070356 0.495025
vn 0.427051 0.805048 0.411735
v 0.058834 0.118035 0.340778
vn 0.427051 0.805048 0.411735
v -0.000000 0.070356 0.495025
vn -0.426881 0.805154 0.411704
v -0.094683 0.070999 0.395594
vn -0.426881 0.805154 0.411704
v -0.058834 0.118035 0.340778
vn -0.426881 0.805154 0.411704
v -0.094683 0.070999 0.395594
vn -0.510731 0.788529 0.342602
v -0.177474 0.070375 0.273610
vn -0.510731 0.788529 0.342602
v -0.058834 0.118035 0.340778
vn -0.510731 0.788529 0.342602
v -0.224042 0.071017 0.157375
vn -0.477311 0.856606 0.195959
v -0.176897 0.118035 0.066677
vn -0.464047 0.863703 0.196667
v -0.177474 0.070375 0.273610
vn -0.468616 0.861149 0.197030
v -0.058834 0.118035 0.340778
vn -0.457375 0.867178 0.197004
v -0.099911 0.141998 0.139159
vn -0.454870 0.868738 0.195925
v -0.000000 0.141998 0.262996
vn -0.000000 0.955675 0.294423
v 0.058834 0.118035 0.340778
vn -0.000000 0.955537 0.294872
v -0.058834 0.118035 0.340778
vn -0.000000 0.955537 0.294872
v -0.000000 0.070356 0.495025
vn -0.000000 0.955398 0.295321
v -0.099911 0.141998 0.139159
vn -0.394054 0.911589 0.117164
v -0.176897 0.118035 0.066677
vn -0.394054 0.911589 0.117164
v -0.141287 0.141998 0.000000
vn -0.394054 0.911589 0.117164
v -0.000000 -0.115755 0.088909
vn -0.581332 -0.780613 0.229556
v -0.000000 -0.142029 0.000000
vn -0.581917 -0.779907 0.230475
v -0.044567 -0.103811 0.016801
vn -0.581385 -0.780425 0.230060
v -0.224042 0.071017 0.157375
vn -0.581039 -0.780966 0.229096
v -0.177474 0.070375 0.273610
vn -0.581226 -0.780988 0.228547
v -0.000000 -0.142029 0.000000
vn 0.581917 -0.779907 0.230475
v -0.000000 -0.115755 0.088909
vn 0.581241 -0.780566 0.229948
v 0.044567 -0.103811 0.016801
vn 0.581318 -0.780636 0.229514
v 0.177474 0.070375 0.273610
vn 0.581018 -0.781000 0.229034
v 0.224042 0.071017 0.157375
vn 0.581472 -0.780776 0.228647
v 0.044567 -0.103811 0.016801
vn 0.653223 -0.750598 0.099509
v 0.224042 0.071017 0.157375
vn 0.653223 -0.750598 0.099509
v 0.247278 0.070375 0.000000
vn 0.653223 -0.750598 0.099509
v -0.044567 -0.103811 0.016801
vn -0.653223 -0.750598 0.099509
v -0.247278 0.070375 0.000000
vn -0.653223 -0.750598 0.099509
v -0.224042 0.071017 0.157375
vn -0.653223 -0.750598 0.099509
v 0.141287 0.141998 0.000000
vn 0.394068 0.911582 0.117168
v 0.176897 0.118034 0.066677
vn 0.394068 0.911582 0.117168
v 0.099911 0.141998 0.139159
vn 0.394068 0.911582 0.117168
v 0.141287 0.141998 0.000000
vn 0.559897 0.828562 0.000000
v 0.176897 0.118034 -0.066677
vn 0.559897 0.828561 0.001234
v 0.247278 0.070375 0.000000
vn 0.559897 0.828562 0.000000
v 0.176897 0.118034 0.066677
vn 0.559897 0.828561 -0.001234
v 0.224042 0.071017 0.157375
vn 0.614033 0.784420 0.087460
v 0.176897 0.118034 0.066677
vn 0.614033 0.784420 0.087460
v 0.247278 0.070375 0.000000
vn 0.614033 0.784420 0.087460
v -0.176897 0.118035 0.066677
vn -0.559897 0.828561 -0.001247
v -0.247278 0.070375 0.000000
vn -0.559897 0.828562 0.000000
v -0.141287 0.141998 0.000000
vn -0.559897 0.828562 0.000000
v -0.176897 0.118035 -0.066677
vn -0.559897 0.828561 0.001247
v -0.224042 0.071017 0.157375
vn -0.614041 0.784413 0.087462
v -0.247278 0.070375 0.000000
vn -0.614041 0.784413 0.087462
v -0.176897 0.118035 0.066677
vn -0.614041 0.784413 0.087462
# Faces (1 to 168)
g MarquiseCut_0
f -166//-166 -167//-167 -168//-168
f -167//-167 -165//-165 -168//-168
f -162//-162 -163//-163 -164//-164
f -159//-159 -160//-160 -161//-161
f -161//-161 -160//-160 -158//-158
f -157//-157 -161//-161 -158//-158
f -154//-154 -155//-155 -156//-156
f -151//-151 -152//-152 -153//-153
f -148//-148 -149//-149 -150//-150
f -145//-145 -146//-146 -147//-147
f -142//-142 -143//-143 -144//-144
f -139//-139 -140//-140 -141//-141
f -136//-136 -137//-137 -138//-138
f -133//-133 -134//-134 -135//-135
f -134//-134 -132//-132 -135//-135
f -132//-132 -131//-131 -135//-135
f -128//-128 -129//-129 -130//-130
f -125//-125 -126//-126 -127//-127
f -122//-122 -123//-123 -124//-124
f -123//-123 -121//-121 -124//-124
f -118//-118 -119//-119 -120//-120
f -120//-120 -117//-117 -118//-118
f -118//-118 -117//-117 -116//-116
f -113//-113 -114//-114 -115//-115
f -110//-110 -111//-111 -112//-112
f -107//-107 -108//-108 -109//-109
f -104//-104 -105//-105 -106//-106
f -101//-101 -102//-102 -103//-103
f -98//-98 -99//-99 -100//-100
f -98//-98 -97//-97 -99//-99
f -97//-97 -98//-98 -96//-96
f -93//-93 -94//-94 -95//-95
f -90//-90 -91//-91 -92//-92
f -89//-89 -91//-91 -90//-90
f -86//-86 -87//-87 -88//-88
f -88//-88 -87//-87 -85//-85
f -87//-87 -84//-84 -85//-85
f -84//-84 -83//-83 -85//-85
f -87//-87 -82//-82 -84//-84
f -88//-88 -85//-85 -81//-81
f -78//-78 -79//-79 -80//-80
f -75//-75 -76//-76 -77//-77
f -72//-72 -73//-73 -74//-74
f -69//-69 -70//-70 -71//-71
f -66//-66 -67//-67 -68//-68
f -63//-63 -64//-64 -65//-65
f -60//-60 -61//-61 -62//-62
f -59//-59 -62//-62 -61//-61
f -59//-59 -61//-61 -58//-58
f -55//-55 -56//-56 -57//-57
f -52//-52 -53//-53 -54//-54
f -49//-49 -50//-50 -51//-51
f -46//-46 -47//-47 -48//-48
f -43//-43 -44//-44 -45//-45
f -42//-42 -44//-44 -43//-43
f -44//-44 -42//-42 -41//-41
f -38//-38 -39//-39 -40//-40
f -38//-38 -37//-37 -39//-39
f -34//-34 -35//-35 -36//-36
f -31//-31 -32//-32 -33//-33
f -30//-30 -31//-31 -33//-33
f -29//-29 -30//-30 -33//-33
f -26//-26 -27//-27 -28//-28
f -26//-26 -25//-25 -27//-27
f -26//-26 -24//-24 -25//-25
f -21//-21 -22//-22 -23//-23
f -18//-18 -19//-19 -20//-20
f -15//-15 -16//-16 -17//-17
f -12//-12 -13//-13 -14//-14
f -11//-11 -12//-12 -14//-14
f -8//-8 -9//-9 -10//-10
f -5//-5 -6//-6 -7//-7
f -5//-5 -4//-4 -6//-6
f -1//-1 -2//-2 -3//-3

