# Mesh "PrincessCut" exported with Unity Assets Bundle Extractor; 161 vertices, 216 indices, 320 bits per vertex
g PrincessCut
# SubMesh 0
# Vertices
v -0.236659 0.236731 0.000000
vn -0.000000 1.000000 0.000000
v -0.000000 0.236731 -0.236659
vn -0.000000 1.000000 0.000000
v -0.000000 0.236731 0.000000
vn -0.000000 1.000000 0.000000
v -0.200744 0.236731 -0.200744
vn -0.000000 1.000000 0.000000
v 0.236659 0.236731 0.000000
vn -0.000000 1.000000 0.000000
v 0.200744 0.236731 -0.200744
vn -0.000000 1.000000 0.000000
v -0.000000 0.236731 0.236659
vn -0.000000 1.000000 0.000000
v 0.200744 0.236731 0.200744
vn -0.000000 1.000000 0.000000
v -0.200744 0.236731 0.200744
vn -0.000000 1.000000 0.000000
v -0.236659 0.236731 0.000000
vn -0.377732 0.923446 0.067580
v -0.200744 0.236731 0.200744
vn -0.377732 0.923446 0.067580
v -0.270542 0.206411 0.224922
vn -0.377732 0.923446 0.067580
v -0.236659 0.236731 0.000000
vn -0.377732 0.923446 -0.067580
v -0.270542 0.206411 -0.224922
vn -0.377732 0.923446 -0.067580
v -0.200744 0.236731 -0.200744
vn -0.377732 0.923446 -0.067580
v -0.270542 0.206411 -0.224922
vn -0.285517 0.905737 -0.313242
v -0.220492 0.206411 -0.270542
vn -0.285517 0.905737 -0.313242
v -0.200744 0.236731 -0.200744
vn -0.285175 0.905974 -0.312867
v -0.338181 0.145831 -0.338181
vn -0.285859 0.905499 -0.313617
v -0.220492 0.206411 -0.270542
vn -0.068201 0.921972 -0.381205
v -0.000000 0.236731 -0.236659
vn -0.068201 0.921972 -0.381205
v -0.200744 0.236731 -0.200744
vn -0.068201 0.921972 -0.381205
v -0.200744 0.236731 0.200744
vn -0.068201 0.921972 0.381205
v -0.000000 0.236731 0.236659
vn -0.068201 0.921972 0.381205
v -0.220492 0.206411 0.270542
vn -0.068201 0.921972 0.381205
v -0.338181 0.145821 0.000000
vn -0.667201 0.744878 0.000000
v -0.270542 0.206411 -0.224922
vn -0.667085 0.744981 0.000000
v -0.270542 0.206411 0.224922
vn -0.667085 0.744981 0.000000
v -0.338181 0.145831 -0.338181
vn -0.667188 0.744890 0.000000
v -0.338181 0.145831 0.338181
vn -0.667188 0.744890 0.000000
v -0.236659 0.236731 0.000000
vn -0.666839 0.745202 0.000000
v 0.236659 0.236731 0.000000
vn 0.377732 0.923446 0.067580
v 0.270542 0.206411 0.224922
vn 0.377732 0.923446 0.067580
v 0.200744 0.236731 0.200744
vn 0.377732 0.923446 0.067580
v 0.236659 0.236731 0.000000
vn 0.377732 0.923446 -0.067580
v 0.200744 0.236731 -0.200744
vn 0.377732 0.923446 -0.067580
v 0.270542 0.206411 -0.224922
vn 0.377732 0.923446 -0.067580
v 0.270542 0.206411 -0.224922
vn 0.285517 0.905737 -0.313242
v 0.220492 0.206411 -0.270542
vn 0.285517 0.905737 -0.313242
v 0.338181 0.145831 -0.338181
vn 0.285859 0.905499 -0.313617
v 0.200744 0.236731 -0.200744
vn 0.285175 0.905974 -0.312867
v 0.220492 0.206411 -0.270542
vn 0.068201 0.921972 -0.381205
v 0.200744 0.236731 -0.200744
vn 0.068201 0.921972 -0.381205
v -0.000000 0.236731 -0.236659
vn 0.068201 0.921972 -0.381205
v 0.200744 0.236731 0.200744
vn 0.068201 0.921972 0.381205
v 0.220492 0.206411 0.270542
vn 0.068201 0.921972 0.381205
v -0.000000 0.236731 0.236659
vn 0.068201 0.921972 0.381205
v 0.338181 0.145821 0.000000
vn 0.667201 0.744878 0.000000
v 0.270542 0.206411 0.224922
vn 0.667085 0.744981 0.000000
v 0.270542 0.206411 -0.224922
vn 0.667085 0.744981 0.000000
v 0.338181 0.145831 -0.338181
vn 0.667188 0.744890 0.000000
v 0.338181 0.145831 0.338181
vn 0.667188 0.744890 0.000000
v 0.236659 0.236731 0.000000
vn 0.666839 0.745202 0.000000
v 0.220492 0.206411 -0.270542
vn -0.000000 0.744981 -0.667085
v -0.220492 0.206411 -0.270542
vn -0.000000 0.744981 -0.667085
v -0.000000 0.145821 -0.338181
vn -0.000000 0.744877 -0.667202
v -0.338181 0.145831 -0.338181
vn -0.000000 0.744889 -0.667189
v 0.338181 0.145831 -0.338181
vn -0.000000 0.744889 -0.667189
v -0.000000 0.236731 -0.236659
vn -0.000000 0.745202 -0.666839
v 0.220492 0.206411 0.270542
vn -0.000000 0.744981 0.667085
v -0.000000 0.145821 0.338181
vn -0.000000 0.744877 0.667202
v -0.220492 0.206411 0.270542
vn -0.000000 0.744981 0.667085
v -0.000000 0.236731 0.236659
vn -0.000000 0.745202 0.666839
v 0.338181 0.145831 0.338181
vn -0.000000 0.744889 0.667189
v -0.338181 0.145831 0.338181
vn -0.000000 0.744889 0.667189
v -0.200744 0.236731 0.200744
vn -0.285175 0.905974 0.312867
v -0.220492 0.206411 0.270542
vn -0.285517 0.905737 0.313242
v -0.270542 0.206411 0.224922
vn -0.285517 0.905737 0.313242
v -0.338181 0.145831 0.338181
vn -0.285859 0.905499 0.313617
v 0.200744 0.236731 0.200744
vn 0.285175 0.905974 0.312867
v 0.270542 0.206411 0.224922
vn 0.285517 0.905737 0.313242
v 0.220492 0.206411 0.270542
vn 0.285517 0.905737 0.313242
v 0.338181 0.145831 0.338181
vn 0.285859 0.905499 0.313617
v -0.000000 -0.114884 -0.169091
vn -0.000000 -0.544155 -0.838985
v 0.338181 0.145831 -0.338181
vn -0.000000 -0.544155 -0.838985
v -0.000000 0.145821 -0.338181
vn -0.000000 -0.544155 -0.838985
v -0.338181 0.145831 -0.338181
vn -0.000000 -0.544155 -0.838985
v -0.169091 -0.114884 0.000000
vn -0.838985 -0.544155 0.000000
v -0.338181 0.145831 -0.338181
vn -0.838985 -0.544155 0.000000
v -0.338181 0.145821 0.000000
vn -0.838985 -0.544155 0.000000
v -0.338181 0.145831 0.338181
vn -0.838985 -0.544155 0.000000
v -0.000000 0.145821 0.338181
vn -0.000000 -0.544155 0.838985
v -0.000000 -0.114884 0.169091
vn -0.000000 -0.544155 0.838985
v -0.338181 0.145831 0.338181
vn -0.000000 -0.544155 0.838985
v 0.338181 0.145831 0.338181
vn -0.000000 -0.544155 0.838985
v 0.338181 0.145821 0.000000
vn 0.838985 -0.544155 0.000000
v 0.169091 -0.114884 0.000000
vn 0.838985 -0.544155 0.000000
v 0.338181 0.145831 0.338181
vn 0.838985 -0.544155 0.000000
v 0.338181 0.145831 -0.338181
vn 0.838985 -0.544155 0.000000
v -0.000000 -0.168605 -0.112727
vn 0.208415 -0.707979 -0.674781
v 0.338181 0.145831 -0.338181
vn 0.208415 -0.707979 -0.674781
v -0.000000 -0.114884 -0.169091
vn 0.208415 -0.707979 -0.674781
v -0.112727 -0.168605 0.000000
vn -0.674781 -0.707979 -0.208415
v -0.338181 0.145831 -0.338181
vn -0.674781 -0.707979 -0.208415
v -0.169091 -0.114884 0.000000
vn -0.674781 -0.707979 -0.208415
v -0.000000 -0.114884 0.169091
vn -0.208415 -0.707979 0.674781
v -0.000000 -0.168605 0.112727
vn -0.208415 -0.707979 0.674781
v -0.338181 0.145831 0.338181
vn -0.208415 -0.707979 0.674781
v 0.169091 -0.114884 0.000000
vn 0.674781 -0.707979 0.208415
v 0.112727 -0.168605 0.000000
vn 0.674781 -0.707979 0.208415
v 0.338181 0.145831 0.338181
vn 0.674781 -0.707979 0.208415
v -0.338181 0.145831 -0.338181
vn -0.208415 -0.707979 -0.674781
v -0.000000 -0.168605 -0.112727
vn -0.208415 -0.707979 -0.674781
v -0.000000 -0.114884 -0.169091
vn -0.208415 -0.707979 -0.674781
v -0.338181 0.145831 -0.338181
vn -0.328074 -0.757519 -0.564386
v -0.000000 -0.210598 -0.056364
vn -0.328074 -0.757519 -0.564386
v -0.000000 -0.168605 -0.112727
vn -0.328074 -0.757519 -0.564386
v -0.338181 0.145831 0.338181
vn -0.674781 -0.707979 0.208415
v -0.112727 -0.168605 0.000000
vn -0.674781 -0.707979 0.208415
v -0.169091 -0.114884 0.000000
vn -0.674781 -0.707979 0.208415
v -0.338181 0.145831 0.338181
vn -0.564386 -0.757519 0.328074
v -0.056364 -0.210598 0.000000
vn -0.564386 -0.757519 0.328074
v -0.112727 -0.168605 0.000000
vn -0.564386 -0.757519 0.328074
v 0.338181 0.145831 0.338181
vn 0.208415 -0.707979 0.674781
v -0.000000 -0.168605 0.112727
vn 0.208415 -0.707979 0.674781
v -0.000000 -0.114884 0.169091
vn 0.208415 -0.707979 0.674781
v 0.338181 0.145831 0.338181
vn 0.328074 -0.757519 0.564386
v -0.000000 -0.210598 0.056364
vn 0.328074 -0.757519 0.564386
v -0.000000 -0.168605 0.112727
vn 0.328074 -0.757519 0.564386
v 0.338181 0.145831 -0.338181
vn 0.674781 -0.707979 -0.208415
v 0.112727 -0.168605 0.000000
vn 0.674781 -0.707979 -0.208415
v 0.169091 -0.114884 0.000000
vn 0.674781 -0.707979 -0.208415
v 0.338181 0.145831 -0.338181
vn 0.564386 -0.757519 -0.328074
v 0.056364 -0.210598 0.000000
vn 0.564386 -0.757519 -0.328074
v 0.112727 -0.168605 0.000000
vn 0.564386 -0.757519 -0.328074
v -0.000000 -0.210598 -0.056364
vn 0.328073 -0.757519 -0.564387
v 0.338181 0.145831 -0.338181
vn 0.328073 -0.757519 -0.564387
v -0.000000 -0.168605 -0.112727
vn 0.328073 -0.757519 -0.564387
v -0.056364 -0.210598 0.000000
vn -0.564387 -0.757519 -0.328073
v -0.338181 0.145831 -0.338181
vn -0.564387 -0.757519 -0.328073
v -0.112727 -0.168605 0.000000
vn -0.564387 -0.757519 -0.328073
v -0.338181 0.145831 0.338181
vn -0.328074 -0.757519 0.564386
v -0.000000 -0.168605 0.112727
vn -0.328074 -0.757519 0.564386
v -0.000000 -0.210598 0.056364
vn -0.328074 -0.757519 0.564386
v 0.338181 0.145831 0.338181
vn 0.564386 -0.757519 0.328074
v 0.112727 -0.168605 0.000000
vn 0.564386 -0.757519 0.328074
v 0.056364 -0.210598 0.000000
vn 0.564386 -0.757519 0.328074
v -0.000000 -0.236731 0.000000
vn -0.387729 -0.836261 0.387729
v -0.056364 -0.210598 0.000000
vn -0.387729 -0.836261 0.387729
v -0.000000 -0.210598 0.056364
vn -0.387729 -0.836261 0.387729
v -0.000000 -0.236731 0.000000
vn -0.387729 -0.836261 -0.387729
v -0.000000 -0.210598 -0.056364
vn -0.387729 -0.836261 -0.387729
v -0.056364 -0.210598 0.000000
vn -0.387729 -0.836261 -0.387729
v -0.000000 -0.210598 -0.056364
vn 0.387729 -0.836261 -0.387729
v -0.000000 -0.236731 0.000000
vn 0.387729 -0.836261 -0.387729
v 0.056364 -0.210598 0.000000
vn 0.387729 -0.836261 -0.387729
v 0.056364 -0.210598 0.000000
vn 0.387729 -0.836261 0.387729
v -0.000000 -0.236731 0.000000
vn 0.387729 -0.836261 0.387729
v -0.000000 -0.210598 0.056364
vn 0.387729 -0.836261 0.387729
v -0.338181 0.145831 0.338181
vn -0.446066 -0.775919 0.446066
v -0.000000 -0.210598 0.056364
vn -0.446066 -0.775919 0.446066
v -0.056364 -0.210598 0.000000
vn -0.446066 -0.775919 0.446066
v -0.000000 -0.210598 0.056364
vn 0.446066 -0.775919 0.446066
v 0.338181 0.145831 0.338181
vn 0.446066 -0.775919 0.446066
v 0.056364 -0.210598 0.000000
vn 0.446066 -0.775919 0.446066
v 0.338181 0.145831 -0.338181
vn 0.446066 -0.775919 -0.446066
v -0.000000 -0.210598 -0.056364
vn 0.446066 -0.775919 -0.446066
v 0.056364 -0.210598 0.000000
vn 0.446066 -0.775919 -0.446066
v -0.000000 -0.210598 -0.056364
vn -0.446066 -0.775919 -0.446066
v -0.338181 0.145831 -0.338181
vn -0.446066 -0.775919 -0.446066
v -0.056364 -0.210598 0.000000
vn -0.446066 -0.775919 -0.446066
# Faces (1 to 161)
g PrincessCut_0
f -159//-159 -160//-160 -161//-161
f -160//-160 -158//-158 -161//-161
f -160//-160 -159//-159 -157//-157
f -156//-156 -160//-160 -157//-157
f -161//-161 -155//-155 -159//-159
f -157//-157 -159//-159 -155//-155
f -154//-154 -157//-157 -155//-155
f -153//-153 -155//-155 -161//-161
f -150//-150 -151//-151 -152//-152
f -147//-147 -148//-148 -149//-149
f -144//-144 -145//-145 -146//-146
f -145//-145 -143//-143 -146//-146
f -140//-140 -141//-141 -142//-142
f -137//-137 -138//-138 -139//-139
f -134//-134 -135//-135 -136//-136
f -133//-133 -136//-136 -135//-135
f -132//-132 -134//-134 -136//-136
f -131//-131 -135//-135 -134//-134
f -128//-128 -129//-129 -130//-130
f -125//-125 -126//-126 -127//-127
f -122//-122 -123//-123 -124//-124
f -123//-123 -121//-121 -124//-124
f -118//-118 -119//-119 -120//-120
f -115//-115 -116//-116 -117//-117
f -112//-112 -113//-113 -114//-114
f -114//-114 -111//-111 -112//-112
f -113//-113 -110//-110 -114//-114
f -109//-109 -113//-113 -112//-112
f -106//-106 -107//-107 -108//-108
f -106//-106 -105//-105 -107//-107
f -108//-108 -104//-104 -106//-106
f -103//-103 -108//-108 -107//-107
f -100//-100 -101//-101 -102//-102
f -99//-99 -100//-100 -102//-102
f -102//-102 -101//-101 -98//-98
f -101//-101 -100//-100 -97//-97
f -94//-94 -95//-95 -96//-96
f -94//-94 -93//-93 -95//-95
f -90//-90 -91//-91 -92//-92
f -90//-90 -89//-89 -91//-91
f -86//-86 -87//-87 -88//-88
f -86//-86 -88//-88 -85//-85
f -82//-82 -83//-83 -84//-84
f -82//-82 -84//-84 -81//-81
f -78//-78 -79//-79 -80//-80
f -80//-80 -79//-79 -77//-77
f -74//-74 -75//-75 -76//-76
f -76//-76 -75//-75 -73//-73
f -70//-70 -71//-71 -72//-72
f -67//-67 -68//-68 -69//-69
f -64//-64 -65//-65 -66//-66
f -61//-61 -62//-62 -63//-63
f -58//-58 -59//-59 -60//-60
f -55//-55 -56//-56 -57//-57
f -52//-52 -53//-53 -54//-54
f -49//-49 -50//-50 -51//-51
f -46//-46 -47//-47 -48//-48
f -43//-43 -44//-44 -45//-45
f -40//-40 -41//-41 -42//-42
f -37//-37 -38//-38 -39//-39
f -34//-34 -35//-35 -36//-36
f -31//-31 -32//-32 -33//-33
f -28//-28 -29//-29 -30//-30
f -25//-25 -26//-26 -27//-27
f -22//-22 -23//-23 -24//-24
f -19//-19 -20//-20 -21//-21
f -16//-16 -17//-17 -18//-18
f -13//-13 -14//-14 -15//-15
f -10//-10 -11//-11 -12//-12
f -7//-7 -8//-8 -9//-9
f -4//-4 -5//-5 -6//-6
f -1//-1 -2//-2 -3//-3

