# Mesh "RoundCut" exported with Unity Assets Bundle Extractor; 192 vertices, 234 indices, 320 bits per vertex
g RoundCut
# SubMesh 0
# Vertices
v -0.066261 -0.201639 -0.066267
vn -0.601763 -0.758781 -0.249264
v -0.093712 -0.201639 0.000004
vn -0.601763 -0.758781 -0.249264
v -0.000000 -0.275882 0.000000
vn -0.601411 -0.759108 -0.249119
v -0.443805 0.136742 -0.183830
vn -0.602115 -0.758454 -0.249410
v -0.066261 -0.201639 -0.066267
vn -0.551801 -0.745525 -0.373775
v -0.339827 0.137989 -0.339819
vn -0.551801 -0.745525 -0.373775
v -0.443805 0.136742 -0.183830
vn -0.551801 -0.745525 -0.373775
v -0.066261 -0.201639 -0.066267
vn -0.373682 -0.745510 -0.551885
v -0.183816 0.136742 -0.443770
vn -0.373682 -0.745510 -0.551885
v -0.339827 0.137989 -0.339819
vn -0.373682 -0.745510 -0.551885
v -0.263017 0.229328 -0.263012
vn -0.258810 0.930619 -0.258777
v -0.105040 0.275882 -0.253591
vn -0.258810 0.930619 -0.258777
v -0.253577 0.275882 -0.105035
vn -0.258810 0.930619 -0.258777
v -0.000004 -0.201639 -0.093712
vn -0.249268 -0.758770 -0.601775
v -0.066261 -0.201639 -0.066267
vn -0.249268 -0.758770 -0.601775
v -0.000000 -0.275882 0.000000
vn -0.249112 -0.759119 -0.601399
v -0.183816 0.136742 -0.443770
vn -0.249424 -0.758420 -0.602152
v -0.000004 -0.201639 -0.093712
vn -0.126007 -0.745509 -0.654476
v 0.000006 0.137989 -0.480582
vn -0.126007 -0.745509 -0.654476
v -0.183816 0.136742 -0.443770
vn -0.126007 -0.745509 -0.654476
v -0.000004 -0.201639 -0.093712
vn 0.125883 -0.745524 -0.654482
v 0.183830 0.136742 -0.443805
vn 0.125883 -0.745524 -0.654482
v 0.000006 0.137989 -0.480582
vn 0.125883 -0.745524 -0.654482
v 0.000003 0.229328 -0.371958
vn -0.000000 0.930618 -0.365992
v 0.105035 0.275882 -0.253577
vn -0.000000 0.930618 -0.365992
v -0.105040 0.275882 -0.253591
vn -0.000000 0.930618 -0.365992
v 0.066267 -0.201639 -0.066261
vn 0.249264 -0.758781 -0.601763
v -0.000004 -0.201639 -0.093712
vn 0.249264 -0.758781 -0.601763
v -0.000000 -0.275882 0.000000
vn 0.249119 -0.759108 -0.601411
v 0.183830 0.136742 -0.443805
vn 0.249410 -0.758454 -0.602115
v 0.066267 -0.201639 -0.066261
vn 0.373775 -0.745525 -0.551801
v 0.339819 0.137989 -0.339827
vn 0.373775 -0.745525 -0.551801
v 0.183830 0.136742 -0.443805
vn 0.373775 -0.745525 -0.551801
v 0.066267 -0.201639 -0.066261
vn 0.551885 -0.745510 -0.373682
v 0.443770 0.136742 -0.183816
vn 0.551885 -0.745510 -0.373682
v 0.339819 0.137989 -0.339827
vn 0.551885 -0.745510 -0.373682
v 0.263012 0.229328 -0.263017
vn 0.258777 0.930619 -0.258810
v 0.253591 0.275882 -0.105040
vn 0.258777 0.930619 -0.258810
v 0.105035 0.275882 -0.253577
vn 0.258777 0.930619 -0.258810
v 0.093712 -0.201639 -0.000004
vn 0.601775 -0.758770 -0.249268
v 0.066267 -0.201639 -0.066261
vn 0.601775 -0.758770 -0.249268
v -0.000000 -0.275882 0.000000
vn 0.601399 -0.759119 -0.249112
v 0.443770 0.136742 -0.183816
vn 0.602152 -0.758420 -0.249424
v 0.093712 -0.201639 -0.000004
vn 0.654476 -0.745509 -0.126007
v 0.480582 0.137989 0.000006
vn 0.654476 -0.745509 -0.126007
v 0.443770 0.136742 -0.183816
vn 0.654476 -0.745509 -0.126007
v 0.093712 -0.201639 -0.000004
vn 0.654482 -0.745524 0.125883
v 0.443805 0.136742 0.183830
vn 0.654482 -0.745524 0.125883
v 0.480582 0.137989 0.000006
vn 0.654482 -0.745524 0.125883
v 0.371958 0.229328 0.000003
vn 0.365992 0.930618 0.000000
v 0.253577 0.275882 0.105035
vn 0.365992 0.930618 0.000000
v 0.253591 0.275882 -0.105040
vn 0.365992 0.930618 0.000000
v 0.066261 -0.201639 0.066267
vn 0.601763 -0.758781 0.249264
v 0.093712 -0.201639 -0.000004
vn 0.601763 -0.758781 0.249264
v -0.000000 -0.275882 0.000000
vn 0.601411 -0.759108 0.249119
v 0.443805 0.136742 0.183830
vn 0.602115 -0.758454 0.249410
v 0.066261 -0.201639 0.066267
vn 0.551801 -0.745525 0.373775
v 0.339827 0.137989 0.339819
vn 0.551801 -0.745525 0.373775
v 0.443805 0.136742 0.183830
vn 0.551801 -0.745525 0.373775
v 0.066261 -0.201639 0.066267
vn 0.373682 -0.745510 0.551885
v 0.183816 0.136742 0.443770
vn 0.373682 -0.745510 0.551885
v 0.339827 0.137989 0.339819
vn 0.373682 -0.745510 0.551885
v 0.263017 0.229328 0.263012
vn 0.258677 0.930651 0.258795
v 0.105035 0.275863 0.253578
vn 0.258677 0.930651 0.258795
v 0.253577 0.275882 0.105035
vn 0.258677 0.930651 0.258795
v 0.000004 -0.201639 0.093712
vn 0.249268 -0.758770 0.601775
v 0.066261 -0.201639 0.066267
vn 0.249268 -0.758770 0.601775
v -0.000000 -0.275882 0.000000
vn 0.249112 -0.759119 0.601399
v 0.183816 0.136742 0.443770
vn 0.249424 -0.758420 0.602152
v 0.000004 -0.201639 0.093712
vn 0.126007 -0.745509 0.654476
v -0.000006 0.137989 0.480582
vn 0.126007 -0.745509 0.654476
v 0.183816 0.136742 0.443770
vn 0.126007 -0.745509 0.654476
v 0.000004 -0.201639 0.093712
vn -0.125883 -0.745524 0.654482
v -0.183830 0.136742 0.443805
vn -0.125883 -0.745524 0.654482
v -0.000006 0.137989 0.480582
vn -0.125883 -0.745524 0.654482
v -0.000003 0.229328 0.371958
vn -0.000000 0.930650 0.365910
v -0.105035 0.275882 0.253577
vn -0.000000 0.930650 0.365910
v 0.105035 0.275863 0.253578
vn -0.000000 0.930650 0.365910
v -0.066267 -0.201639 0.066261
vn -0.249264 -0.758781 0.601763
v 0.000004 -0.201639 0.093712
vn -0.249264 -0.758781 0.601763
v -0.000000 -0.275882 0.000000
vn -0.249119 -0.759108 0.601411
v -0.183830 0.136742 0.443805
vn -0.249410 -0.758454 0.602115
v -0.066267 -0.201639 0.066261
vn -0.373775 -0.745525 0.551801
v -0.339819 0.137989 0.339827
vn -0.373775 -0.745525 0.551801
v -0.183830 0.136742 0.443805
vn -0.373775 -0.745525 0.551801
v -0.066267 -0.201639 0.066261
vn -0.551885 -0.745510 0.373682
v -0.443770 0.136742 0.183816
vn -0.551885 -0.745510 0.373682
v -0.339819 0.137989 0.339827
vn -0.551885 -0.745510 0.373682
v -0.263012 0.229328 0.263017
vn -0.258777 0.930619 0.258810
v -0.253591 0.275882 0.105040
vn -0.258777 0.930619 0.258810
v -0.105035 0.275882 0.253577
vn -0.258777 0.930619 0.258810
v -0.093712 -0.201639 0.000004
vn -0.601775 -0.758770 0.249268
v -0.066267 -0.201639 0.066261
vn -0.601775 -0.758770 0.249268
v -0.000000 -0.275882 0.000000
vn -0.601399 -0.759119 0.249112
v -0.443770 0.136742 0.183816
vn -0.602152 -0.758420 0.249424
v -0.093712 -0.201639 0.000004
vn -0.654476 -0.745509 0.126007
v -0.480582 0.137989 -0.000006
vn -0.654476 -0.745509 0.126007
v -0.443770 0.136742 0.183816
vn -0.654476 -0.745509 0.126007
v -0.093712 -0.201639 0.000004
vn -0.654482 -0.745524 -0.125883
v -0.443805 0.136742 -0.183830
vn -0.654482 -0.745524 -0.125883
v -0.480582 0.137989 -0.000006
vn -0.654482 -0.745524 -0.125883
v -0.371958 0.229328 -0.000003
vn -0.365992 0.930618 0.000000
v -0.253577 0.275882 -0.105035
vn -0.365992 0.930618 0.000000
v -0.253591 0.275882 0.105040
vn -0.365992 0.930618 0.000000
v -0.443770 0.136742 0.183816
vn -0.637878 0.758586 0.132887
v -0.480582 0.137989 -0.000006
vn -0.637878 0.758586 0.132887
v -0.371958 0.229328 -0.000003
vn -0.637878 0.758586 0.132887
v -0.371958 0.229328 -0.000003
vn -0.637884 0.758602 -0.132765
v -0.480582 0.137989 -0.000006
vn -0.637884 0.758602 -0.132765
v -0.443805 0.136742 -0.183830
vn -0.637884 0.758602 -0.132765
v -0.339819 0.137989 0.339827
vn -0.545014 0.758585 0.357082
v -0.443770 0.136742 0.183816
vn -0.545014 0.758585 0.357082
v -0.263012 0.229328 0.263017
vn -0.545014 0.758585 0.357082
v -0.339819 0.137989 0.339827
vn -0.357173 0.758600 0.544934
v -0.263012 0.229328 0.263017
vn -0.357173 0.758600 0.544934
v -0.183830 0.136742 0.443805
vn -0.357173 0.758600 0.544934
v 0.183816 0.136742 0.443770
vn 0.132887 0.758586 0.637878
v -0.000006 0.137989 0.480582
vn 0.132887 0.758586 0.637878
v -0.000003 0.229328 0.371958
vn 0.132887 0.758586 0.637878
v -0.000003 0.229328 0.371958
vn -0.132765 0.758602 0.637884
v -0.000006 0.137989 0.480582
vn -0.132765 0.758602 0.637884
v -0.183830 0.136742 0.443805
vn -0.132765 0.758602 0.637884
v 0.339827 0.137989 0.339819
vn 0.357082 0.758585 0.545014
v 0.183816 0.136742 0.443770
vn 0.357082 0.758585 0.545014
v 0.263017 0.229328 0.263012
vn 0.357082 0.758585 0.545014
v 0.339827 0.137989 0.339819
vn 0.544934 0.758600 0.357173
v 0.263017 0.229328 0.263012
vn 0.544934 0.758600 0.357173
v 0.443805 0.136742 0.183830
vn 0.544934 0.758600 0.357173
v 0.443770 0.136742 -0.183816
vn 0.637878 0.758586 -0.132887
v 0.480582 0.137989 0.000006
vn 0.637878 0.758586 -0.132887
v 0.371958 0.229328 0.000003
vn 0.637878 0.758586 -0.132887
v 0.480582 0.137989 0.000006
vn 0.637884 0.758602 0.132765
v 0.443805 0.136742 0.183830
vn 0.637884 0.758602 0.132765
v 0.371958 0.229328 0.000003
vn 0.637884 0.758602 0.132765
v 0.339819 0.137989 -0.339827
vn 0.545014 0.758585 -0.357082
v 0.443770 0.136742 -0.183816
vn 0.545014 0.758585 -0.357082
v 0.263012 0.229328 -0.263017
vn 0.545014 0.758585 -0.357082
v 0.339819 0.137989 -0.339827
vn 0.357173 0.758600 -0.544934
v 0.263012 0.229328 -0.263017
vn 0.357173 0.758600 -0.544934
v 0.183830 0.136742 -0.443805
vn 0.357173 0.758600 -0.544934
v 0.183830 0.136742 -0.443805
vn 0.132765 0.758602 -0.637884
v 0.000003 0.229328 -0.371958
vn 0.132765 0.758602 -0.637884
v 0.000006 0.137989 -0.480582
vn 0.132765 0.758602 -0.637884
v 0.000006 0.137989 -0.480582
vn -0.132887 0.758586 -0.637878
v 0.000003 0.229328 -0.371958
vn -0.132887 0.758586 -0.637878
v -0.183816 0.136742 -0.443770
vn -0.132887 0.758586 -0.637878
v -0.339827 0.137989 -0.339819
vn -0.357082 0.758585 -0.545014
v -0.183816 0.136742 -0.443770
vn -0.357082 0.758585 -0.545014
v -0.263017 0.229328 -0.263012
vn -0.357082 0.758585 -0.545014
v -0.339827 0.137989 -0.339819
vn -0.544934 0.758600 -0.357173
v -0.263017 0.229328 -0.263012
vn -0.544934 0.758600 -0.357173
v -0.443805 0.136742 -0.183830
vn -0.544934 0.758600 -0.357173
v -0.000003 0.229328 0.371958
vn -0.214115 0.828821 0.516924
v -0.183830 0.136742 0.443805
vn -0.214571 0.828015 0.518026
v -0.263012 0.229328 0.263017
vn -0.214115 0.828821 0.516924
v -0.105035 0.275882 0.253577
vn -0.213658 0.829626 0.515821
v -0.253591 0.275882 0.105040
vn -0.515909 0.829561 0.213696
v -0.263012 0.229328 0.263017
vn -0.517013 0.828755 0.214153
v -0.371958 0.229328 -0.000003
vn -0.517013 0.828755 0.214153
v -0.443770 0.136742 0.183816
vn -0.518117 0.827948 0.214610
v -0.371958 0.229328 -0.000003
vn -0.516924 0.828821 -0.214115
v -0.443805 0.136742 -0.183830
vn -0.518026 0.828015 -0.214571
v -0.263017 0.229328 -0.263012
vn -0.516924 0.828821 -0.214115
v -0.253577 0.275882 -0.105035
vn -0.515821 0.829626 -0.213658
v -0.105040 0.275882 -0.253591
vn -0.213696 0.829561 -0.515909
v -0.263017 0.229328 -0.263012
vn -0.214153 0.828755 -0.517013
v 0.000003 0.229328 -0.371958
vn -0.214153 0.828755 -0.517013
v -0.183816 0.136742 -0.443770
vn -0.214610 0.827948 -0.518117
v 0.105035 0.275882 -0.253577
vn 0.213658 0.829626 -0.515821
v 0.000003 0.229328 -0.371958
vn 0.214115 0.828821 -0.516924
v 0.263012 0.229328 -0.263017
vn 0.214115 0.828821 -0.516924
v 0.183830 0.136742 -0.443805
vn 0.214571 0.828015 -0.518026
v 0.253591 0.275882 -0.105040
vn 0.515909 0.829561 -0.213696
v 0.263012 0.229328 -0.263017
vn 0.517013 0.828755 -0.214153
v 0.371958 0.229328 0.000003
vn 0.517013 0.828755 -0.214153
v 0.443770 0.136742 -0.183816
vn 0.518117 0.827948 -0.214610
v 0.263017 0.229328 0.263012
vn 0.516924 0.828821 0.214115
v 0.371958 0.229328 0.000003
vn 0.516924 0.828821 0.214115
v 0.443805 0.136742 0.183830
vn 0.518026 0.828015 0.214571
v 0.253577 0.275882 0.105035
vn 0.515821 0.829626 0.213658
v 0.105035 0.275863 0.253578
vn 0.213606 0.829719 0.515693
v 0.263017 0.229328 0.263012
vn 0.214108 0.828834 0.516905
v -0.000003 0.229328 0.371958
vn 0.214108 0.828834 0.516905
v 0.183816 0.136742 0.443770
vn 0.214610 0.827948 0.518117
v 0.253591 0.275882 -0.105040
vn -0.000000 1.000000 0.000000
v 0.253577 0.275882 0.105035
vn -0.000000 1.000000 0.000000
v 0.105035 0.275863 0.253578
vn -0.000000 1.000000 0.000000
v -0.253591 0.275882 0.105040
vn -0.000000 1.000000 0.000000
v -0.105040 0.275882 -0.253591
vn -0.000000 1.000000 0.000000
v -0.253577 0.275882 -0.105035
vn -0.000000 1.000000 0.000000
v 0.105035 0.275882 -0.253577
vn -0.000000 1.000000 0.000000
v -0.105035 0.275882 0.253577
vn -0.000000 1.000000 0.000000
# Faces (1 to 192)
g RoundCut_0
f -190//-190 -191//-191 -192//-192
f -191//-191 -189//-189 -192//-192
f -186//-186 -187//-187 -188//-188
f -183//-183 -184//-184 -185//-185
f -180//-180 -181//-181 -182//-182
f -177//-177 -178//-178 -179//-179
f -178//-178 -176//-176 -179//-179
f -173//-173 -174//-174 -175//-175
f -170//-170 -171//-171 -172//-172
f -167//-167 -168//-168 -169//-169
f -164//-164 -165//-165 -166//-166
f -165//-165 -163//-163 -166//-166
f -160//-160 -161//-161 -162//-162
f -157//-157 -158//-158 -159//-159
f -154//-154 -155//-155 -156//-156
f -151//-151 -152//-152 -153//-153
f -152//-152 -150//-150 -153//-153
f -147//-147 -148//-148 -149//-149
f -144//-144 -145//-145 -146//-146
f -141//-141 -142//-142 -143//-143
f -138//-138 -139//-139 -140//-140
f -139//-139 -137//-137 -140//-140
f -134//-134 -135//-135 -136//-136
f -131//-131 -132//-132 -133//-133
f -128//-128 -129//-129 -130//-130
f -125//-125 -126//-126 -127//-127
f -126//-126 -124//-124 -127//-127
f -121//-121 -122//-122 -123//-123
f -118//-118 -119//-119 -120//-120
f -115//-115 -116//-116 -117//-117
f -112//-112 -113//-113 -114//-114
f -113//-113 -111//-111 -114//-114
f -108//-108 -109//-109 -110//-110
f -105//-105 -106//-106 -107//-107
f -102//-102 -103//-103 -104//-104
f -99//-99 -100//-100 -101//-101
f -100//-100 -98//-98 -101//-101
f -95//-95 -96//-96 -97//-97
f -92//-92 -93//-93 -94//-94
f -89//-89 -90//-90 -91//-91
f -86//-86 -87//-87 -88//-88
f -83//-83 -84//-84 -85//-85
f -80//-80 -81//-81 -82//-82
f -77//-77 -78//-78 -79//-79
f -74//-74 -75//-75 -76//-76
f -71//-71 -72//-72 -73//-73
f -68//-68 -69//-69 -70//-70
f -65//-65 -66//-66 -67//-67
f -62//-62 -63//-63 -64//-64
f -59//-59 -60//-60 -61//-61
f -56//-56 -57//-57 -58//-58
f -53//-53 -54//-54 -55//-55
f -50//-50 -51//-51 -52//-52
f -47//-47 -48//-48 -49//-49
f -44//-44 -45//-45 -46//-46
f -41//-41 -42//-42 -43//-43
f -38//-38 -39//-39 -40//-40
f -37//-37 -38//-38 -40//-40
f -34//-34 -35//-35 -36//-36
f -34//-34 -33//-33 -35//-35
f -30//-30 -31//-31 -32//-32
f -29//-29 -30//-30 -32//-32
f -26//-26 -27//-27 -28//-28
f -27//-27 -26//-26 -25//-25
f -22//-22 -23//-23 -24//-24
f -21//-21 -23//-23 -22//-22
f -18//-18 -19//-19 -20//-20
f -17//-17 -19//-19 -18//-18
f -14//-14 -15//-15 -16//-16
f -13//-13 -16//-16 -15//-15
f -10//-10 -11//-11 -12//-12
f -9//-9 -11//-11 -10//-10
f -6//-6 -7//-7 -8//-8
f -6//-6 -8//-8 -5//-5
f -8//-8 -4//-4 -5//-5
f -5//-5 -4//-4 -3//-3
f -2//-2 -4//-4 -8//-8
f -1//-1 -6//-6 -5//-5

